<?xml version="1.0" encoding="UTF-8" standalone="no"?>
<!DOCTYPE svg PUBLIC "-//W3C//DTD SVG 1.1//EN" "http://www.w3.org/Graphics/SVG/1.1/DTD/svg11.dtd">
<svg width="100%" height="100%" viewBox="0 0 2400 600" version="1.1" xmlns="http://www.w3.org/2000/svg" xmlns:xlink="http://www.w3.org/1999/xlink" xml:space="preserve" xmlns:serif="http://www.serif.com/" style="fill-rule:evenodd;clip-rule:evenodd;stroke-linejoin:round;stroke-miterlimit:2;">
    <g transform="matrix(1,0,0,1,-168.408061,138.790927)">
        <path d="M547.608,281.209C546.808,279.876 545.008,277.742 542.208,274.809C539.408,271.876 536.541,268.942 533.608,266.009C530.675,263.076 528.541,261.209 527.208,260.409C564.541,246.542 595.741,229.342 620.808,208.809C645.875,188.276 665.808,163.742 680.608,135.209C695.408,106.676 705.875,73.742 712.008,36.409C712.808,31.609 713.741,25.609 714.808,18.409C715.875,11.209 716.941,4.342 718.008,-2.191C719.075,-8.724 719.741,-13.458 720.008,-16.391C721.608,-16.124 724.408,-15.591 728.408,-14.791C732.408,-13.991 736.341,-13.258 740.208,-12.591C744.075,-11.924 746.675,-11.458 748.008,-11.191C747.475,-8.258 746.541,-3.658 745.208,2.609C743.875,8.876 742.608,15.342 741.408,22.009C740.208,28.676 739.208,34.409 738.408,39.209C731.208,80.276 719.741,116.009 704.008,146.409C688.275,176.809 667.608,202.876 642.008,224.609C616.408,246.342 584.941,265.209 547.608,281.209ZM494.008,102.809C492.141,92.676 489.541,81.542 486.208,69.409C482.875,57.276 479.141,45.209 475.008,33.209C470.875,21.209 466.541,10.676 462.008,1.609C463.608,1.076 466.208,0.409 469.808,-0.391C473.408,-1.191 477.008,-2.058 480.608,-2.991C484.208,-3.924 486.808,-4.524 488.408,-4.791C492.675,4.276 496.808,14.809 500.808,26.809C504.808,38.809 508.541,50.942 512.008,63.209C515.475,75.476 518.141,86.542 520.008,96.409C518.408,96.942 515.741,97.609 512.008,98.409C508.275,99.209 504.675,100.009 501.208,100.809C497.741,101.609 495.341,102.276 494.008,102.809ZM598.808,82.809C598.008,73.476 596.541,62.742 594.408,50.609C592.275,38.476 589.741,26.342 586.808,14.209C583.875,2.076 580.675,-8.658 577.208,-17.991C578.808,-18.258 581.475,-18.658 585.208,-19.191C588.941,-19.724 592.675,-20.258 596.408,-20.791C600.141,-21.324 602.675,-21.724 604.008,-21.991C607.208,-12.658 610.208,-1.991 613.008,10.009C615.808,22.009 618.275,34.009 620.408,46.009C622.541,58.009 624.141,69.076 625.208,79.209C623.875,79.209 621.341,79.476 617.608,80.009C613.875,80.542 610.208,81.076 606.608,81.609C603.008,82.142 600.408,82.542 598.808,82.809Z" style="fill:rgb(235,245,255);fill-rule:nonzero;"/>
        <path d="M1081.208,294.009C1071.608,286.809 1059.941,279.076 1046.208,270.809C1032.475,262.542 1018.008,254.409 1002.808,246.409C987.608,238.409 972.741,231.076 958.208,224.409C943.675,217.742 930.541,212.409 918.808,208.409C919.875,207.076 921.541,204.742 923.808,201.409C926.075,198.076 928.275,194.742 930.408,191.409C932.541,188.076 933.875,185.876 934.408,184.809C947.208,189.876 961.075,195.876 976.008,202.809C990.941,209.742 1005.875,217.142 1020.808,225.009C1035.741,232.876 1049.941,240.742 1063.408,248.609C1076.875,256.476 1088.541,264.009 1098.408,271.209C1097.608,272.276 1096.008,274.342 1093.608,277.409C1091.208,280.476 1088.808,283.609 1086.408,286.809C1084.008,290.009 1082.275,292.409 1081.208,294.009ZM1092.008,52.809C1084.808,47.476 1075.675,41.609 1064.608,35.209C1053.541,28.809 1041.675,22.342 1029.008,15.809C1016.341,9.276 1003.941,3.342 991.808,-1.991C979.675,-7.324 968.808,-11.591 959.208,-14.791C960.008,-15.858 961.341,-18.124 963.208,-21.591C965.075,-25.058 967.008,-28.524 969.008,-31.991C971.008,-35.458 972.275,-37.591 972.808,-38.391C982.941,-34.924 994.208,-30.391 1006.608,-24.791C1019.008,-19.191 1031.541,-13.191 1044.208,-6.791C1056.875,-0.391 1068.741,5.942 1079.808,12.209C1090.875,18.476 1100.008,24.009 1107.208,28.809C1106.408,29.876 1104.875,32.142 1102.608,35.609C1100.341,39.076 1098.208,42.476 1096.208,45.809C1094.208,49.142 1092.808,51.476 1092.008,52.809ZM1061.608,158.009C1050.941,150.276 1038.208,142.276 1023.408,134.009C1008.608,125.742 993.541,118.076 978.208,111.009C962.875,103.942 949.075,98.409 936.808,94.409C937.608,93.076 939.008,90.742 941.008,87.409C943.008,84.076 945.008,80.676 947.008,77.209C949.008,73.742 950.275,71.609 950.808,70.809C959.875,74.009 970.008,78.076 981.208,83.009C992.408,87.942 1003.808,93.409 1015.408,99.409C1027.008,105.409 1038.141,111.342 1048.808,117.209C1059.475,123.076 1068.808,128.676 1076.808,134.009C1076.008,135.076 1074.475,137.342 1072.208,140.809C1069.941,144.276 1067.808,147.676 1065.808,151.009C1063.808,154.342 1062.408,156.676 1061.608,158.009Z" style="fill:rgb(235,245,255);fill-rule:nonzero;"/>
        <path d="M1422.008,298.009C1421.208,290.809 1419.808,280.676 1417.808,267.609C1415.808,254.542 1413.541,239.476 1411.008,222.409C1408.475,205.342 1405.608,187.342 1402.408,168.409C1383.208,171.342 1364.408,174.342 1346.008,177.409C1327.608,180.476 1310.675,183.209 1295.208,185.609C1279.741,188.009 1266.808,190.142 1256.408,192.009C1256.408,190.942 1256.075,188.609 1255.408,185.009C1254.741,181.409 1254.075,177.742 1253.408,174.009C1252.741,170.276 1252.141,167.876 1251.608,166.809C1261.741,165.476 1274.541,163.676 1290.008,161.409C1305.475,159.142 1322.608,156.542 1341.408,153.609C1360.208,150.676 1379.341,147.742 1398.808,144.809C1396.675,130.676 1394.475,116.676 1392.208,102.809C1389.941,88.942 1387.741,75.476 1385.608,62.409C1369.875,64.809 1354.608,67.276 1339.808,69.809C1325.008,72.342 1311.675,74.609 1299.808,76.609C1287.941,78.609 1278.408,80.276 1271.208,81.609C1270.941,80.542 1270.408,78.209 1269.608,74.609C1268.808,71.009 1268.075,67.342 1267.408,63.609C1266.741,59.876 1266.141,57.476 1265.608,56.409C1272.808,55.342 1282.475,53.942 1294.608,52.209C1306.741,50.476 1320.341,48.476 1335.408,46.209C1350.475,43.942 1366.008,41.609 1382.008,39.209C1378.808,19.476 1376.008,2.409 1373.608,-11.991C1371.208,-26.391 1369.341,-36.124 1368.008,-41.191C1369.608,-41.191 1372.408,-41.391 1376.408,-41.791C1380.408,-42.191 1384.341,-42.591 1388.208,-42.991C1392.075,-43.391 1394.541,-43.724 1395.608,-43.991C1396.141,-39.191 1397.475,-29.724 1399.608,-15.591C1401.741,-1.458 1404.275,15.342 1407.208,34.809C1422.941,32.142 1438.075,29.676 1452.608,27.409C1467.141,25.142 1480.141,23.009 1491.608,21.009C1503.075,19.009 1512.008,17.342 1518.408,16.009C1518.675,17.076 1519.075,19.409 1519.608,23.009C1520.141,26.609 1520.741,30.209 1521.408,33.809C1522.075,37.409 1522.541,39.876 1522.808,41.209C1512.141,42.542 1496.608,44.809 1476.208,48.009C1455.808,51.209 1434.008,54.676 1410.808,58.409C1412.941,71.476 1415.141,84.942 1417.408,98.809C1419.675,112.676 1421.875,126.676 1424.008,140.809C1444.541,137.609 1464.275,134.476 1483.208,131.409C1502.141,128.342 1518.941,125.542 1533.608,123.009C1548.275,120.476 1559.475,118.542 1567.208,117.209C1567.208,118.276 1567.475,120.676 1568.008,124.409C1568.541,128.142 1569.075,131.809 1569.608,135.409C1570.141,139.009 1570.408,141.476 1570.408,142.809C1562.675,143.876 1551.541,145.476 1537.008,147.609C1522.475,149.742 1505.741,152.276 1486.808,155.209C1467.875,158.142 1448.141,161.209 1427.608,164.409C1430.808,183.342 1433.808,201.342 1436.608,218.409C1439.408,235.476 1441.941,250.609 1444.208,263.809C1446.475,277.009 1448.275,287.209 1449.608,294.409C1448.008,294.409 1445.275,294.676 1441.408,295.209C1437.541,295.742 1433.675,296.276 1429.808,296.809C1425.941,297.342 1423.341,297.742 1422.008,298.009Z" style="fill:rgb(235,245,255);fill-rule:nonzero;"/>
        <path d="M1652.808,221.609C1652.808,214.942 1654.408,209.209 1657.608,204.409C1660.808,199.609 1665.675,195.876 1672.208,193.209C1678.741,190.542 1687.208,189.209 1697.608,189.209C1708.808,189.209 1719.341,190.609 1729.208,193.409C1739.075,196.209 1748.675,200.809 1758.008,207.209L1758.008,188.409C1756.141,186.009 1752.541,182.876 1747.208,179.009C1741.875,175.142 1734.741,171.676 1725.808,168.609C1716.875,165.542 1705.741,164.009 1692.408,164.009C1669.741,164.009 1652.075,169.409 1639.408,180.209C1626.741,191.009 1620.408,205.342 1620.408,223.209C1620.408,235.742 1623.341,246.409 1629.208,255.209C1635.075,264.009 1642.875,270.742 1652.608,275.409C1662.341,280.076 1672.808,282.409 1684.008,282.409C1694.141,282.409 1704.341,280.542 1714.608,276.809C1724.875,273.076 1733.541,267.342 1740.608,259.609C1747.675,251.876 1751.208,242.142 1751.208,230.409L1744.808,206.409C1744.808,216.009 1742.475,224.476 1737.808,231.809C1733.141,239.142 1726.875,244.809 1719.008,248.809C1711.141,252.809 1702.275,254.809 1692.408,254.809C1684.675,254.809 1677.808,253.542 1671.808,251.009C1665.808,248.476 1661.141,244.676 1657.808,239.609C1654.475,234.542 1652.808,228.542 1652.808,221.609ZM1648.008,136.809C1650.941,134.676 1654.941,132.142 1660.008,129.209C1665.075,126.276 1671.275,123.742 1678.608,121.609C1685.941,119.476 1694.141,118.409 1703.208,118.409C1708.808,118.409 1714.141,118.942 1719.208,120.009C1724.275,121.076 1728.741,122.809 1732.608,125.209C1736.475,127.609 1739.475,130.876 1741.608,135.009C1743.741,139.142 1744.808,144.409 1744.808,150.809L1744.808,278.409L1776.808,278.409L1776.808,146.409C1776.808,134.409 1773.808,124.276 1767.808,116.009C1761.808,107.742 1753.408,101.409 1742.608,97.009C1731.808,92.609 1719.208,90.409 1704.808,90.409C1687.741,90.409 1673.141,92.942 1661.008,98.009C1648.875,103.076 1639.341,108.142 1632.408,113.209L1648.008,136.809Z" style="fill:rgb(235,245,255);fill-rule:nonzero;"/>
        <path d="M1876.808,366.409L1876.808,94.409L1844.808,94.409L1844.808,366.409L1876.808,366.409ZM2030.808,186.409C2030.808,166.409 2026.675,149.276 2018.408,135.009C2010.141,120.742 1999.141,109.742 1985.408,102.009C1971.675,94.276 1956.408,90.409 1939.608,90.409C1924.408,90.409 1911.008,94.276 1899.408,102.009C1887.808,109.742 1878.741,120.742 1872.208,135.009C1865.675,149.276 1862.408,166.409 1862.408,186.409C1862.408,206.142 1865.675,223.209 1872.208,237.609C1878.741,252.009 1887.808,263.076 1899.408,270.809C1911.008,278.542 1924.408,282.409 1939.608,282.409C1956.408,282.409 1971.675,278.542 1985.408,270.809C1999.141,263.076 2010.141,252.009 2018.408,237.609C2026.675,223.209 2030.808,206.142 2030.808,186.409ZM1998.408,186.409C1998.408,200.542 1995.541,212.542 1989.808,222.409C1984.075,232.276 1976.475,239.742 1967.008,244.809C1957.541,249.876 1947.075,252.409 1935.608,252.409C1926.275,252.409 1917.075,249.876 1908.008,244.809C1898.941,239.742 1891.475,232.276 1885.608,222.409C1879.741,212.542 1876.808,200.542 1876.808,186.409C1876.808,172.276 1879.741,160.276 1885.608,150.409C1891.475,140.542 1898.941,133.076 1908.008,128.009C1917.075,122.942 1926.275,120.409 1935.608,120.409C1947.075,120.409 1957.541,122.942 1967.008,128.009C1976.475,133.076 1984.075,140.542 1989.808,150.409C1995.541,160.276 1998.408,172.276 1998.408,186.409Z" style="fill:rgb(235,245,255);fill-rule:nonzero;"/>
        <path d="M2120.808,366.409L2120.808,94.409L2088.808,94.409L2088.808,366.409L2120.808,366.409ZM2274.808,186.409C2274.808,166.409 2270.675,149.276 2262.408,135.009C2254.141,120.742 2243.141,109.742 2229.408,102.009C2215.675,94.276 2200.408,90.409 2183.608,90.409C2168.408,90.409 2155.008,94.276 2143.408,102.009C2131.808,109.742 2122.741,120.742 2116.208,135.009C2109.675,149.276 2106.408,166.409 2106.408,186.409C2106.408,206.142 2109.675,223.209 2116.208,237.609C2122.741,252.009 2131.808,263.076 2143.408,270.809C2155.008,278.542 2168.408,282.409 2183.608,282.409C2200.408,282.409 2215.675,278.542 2229.408,270.809C2243.141,263.076 2254.141,252.009 2262.408,237.609C2270.675,223.209 2274.808,206.142 2274.808,186.409ZM2242.408,186.409C2242.408,200.542 2239.541,212.542 2233.808,222.409C2228.075,232.276 2220.475,239.742 2211.008,244.809C2201.541,249.876 2191.075,252.409 2179.608,252.409C2170.275,252.409 2161.075,249.876 2152.008,244.809C2142.941,239.742 2135.475,232.276 2129.608,222.409C2123.741,212.542 2120.808,200.542 2120.808,186.409C2120.808,172.276 2123.741,160.276 2129.608,150.409C2135.475,140.542 2142.941,133.076 2152.008,128.009C2161.075,122.942 2170.275,120.409 2179.608,120.409C2191.075,120.409 2201.541,122.942 2211.008,128.009C2220.475,133.076 2228.075,140.542 2233.808,150.409C2239.541,160.276 2242.408,172.276 2242.408,186.409Z" style="fill:rgb(235,245,255);fill-rule:nonzero;"/>
    </g>
    <g transform="matrix(1,0,0,1,332.116771,-3.06463)">
        <path d="M663.842,553.894L663.842,498.478L670.925,498.478L670.925,553.894L663.842,553.894ZM647.092,500.978L647.092,494.228L687.592,494.228L687.592,500.978L647.092,500.978Z" style="fill:rgb(235,245,255);fill-rule:nonzero;"/>
        <path d="M709.425,555.228C706.258,555.228 703.467,554.714 701.05,553.686C698.633,552.658 696.633,551.269 695.05,549.519C693.467,547.769 692.286,545.867 691.508,543.811L697.842,540.978C698.953,543.533 700.564,545.506 702.675,546.894C704.786,548.283 707.203,548.978 709.925,548.978C712.536,548.978 714.717,548.45 716.467,547.394C718.217,546.339 719.092,544.783 719.092,542.728C719.092,541.45 718.73,540.381 718.008,539.519C717.286,538.658 716.23,537.922 714.842,537.311C713.453,536.7 711.758,536.144 709.758,535.644L704.592,534.311C702.592,533.756 700.703,532.978 698.925,531.978C697.147,530.978 695.717,529.686 694.633,528.103C693.55,526.519 693.008,524.589 693.008,522.311C693.008,519.756 693.758,517.561 695.258,515.728C696.758,513.894 698.73,512.492 701.175,511.519C703.619,510.547 706.23,510.061 709.008,510.061C711.453,510.061 713.744,510.408 715.883,511.103C718.022,511.797 719.897,512.825 721.508,514.186C723.119,515.547 724.342,517.228 725.175,519.228L719.008,522.061C717.953,519.95 716.536,518.478 714.758,517.644C712.98,516.811 711.008,516.394 708.842,516.394C706.508,516.394 704.48,516.908 702.758,517.936C701.036,518.964 700.175,520.367 700.175,522.144C700.175,523.922 700.883,525.256 702.3,526.144C703.717,527.033 705.453,527.756 707.508,528.311L713.675,529.894C717.842,530.95 720.98,532.519 723.092,534.603C725.203,536.686 726.258,539.228 726.258,542.228C726.258,544.894 725.508,547.2 724.008,549.144C722.508,551.089 720.48,552.589 717.925,553.644C715.369,554.7 712.536,555.228 709.425,555.228Z" style="fill:rgb(235,245,255);fill-rule:nonzero;"/>
        <path d="M749.258,555.228C744.036,555.228 740.105,553.7 737.467,550.644C734.828,547.589 733.508,543.422 733.508,538.144L733.508,511.394L740.592,511.394L740.592,537.061C740.592,541.283 741.564,544.297 743.508,546.103C745.453,547.908 747.869,548.811 750.758,548.811C753.258,548.811 755.425,548.158 757.258,546.853C759.092,545.547 760.508,543.867 761.508,541.811C762.508,539.756 763.008,537.617 763.008,535.394L763.008,511.394L770.092,511.394L770.092,553.894L763.342,553.894L763.342,547.728L763.008,547.728C762.286,549.061 761.217,550.297 759.8,551.436C758.383,552.575 756.772,553.492 754.967,554.186C753.161,554.881 751.258,555.228 749.258,555.228Z" style="fill:rgb(235,245,255);fill-rule:nonzero;"/>
        <path d="M780.425,553.894L780.425,511.394L787.175,511.394L787.175,517.644L787.508,517.644C788.286,516.256 789.355,514.992 790.717,513.853C792.078,512.714 793.633,511.797 795.383,511.103C797.133,510.408 798.925,510.061 800.758,510.061C803.925,510.061 806.647,510.825 808.925,512.353C811.203,513.881 812.842,515.867 813.842,518.311C815.286,515.922 817.23,513.95 819.675,512.394C822.119,510.839 825.036,510.061 828.425,510.061C833.48,510.061 837.203,511.589 839.592,514.644C841.98,517.7 843.175,521.7 843.175,526.644L843.175,553.894L836.175,553.894L836.175,527.728C836.175,523.617 835.342,520.714 833.675,519.019C832.008,517.325 829.647,516.478 826.592,516.478C824.425,516.478 822.494,517.103 820.8,518.353C819.105,519.603 817.772,521.242 816.8,523.269C815.828,525.297 815.342,527.506 815.342,529.894L815.342,553.894L808.258,553.894L808.258,527.811C808.258,523.7 807.425,520.783 805.758,519.061C804.092,517.339 801.758,516.478 798.758,516.478C796.592,516.478 794.661,517.117 792.967,518.394C791.272,519.672 789.939,521.339 788.967,523.394C787.994,525.45 787.508,527.672 787.508,530.061L787.508,553.894L780.425,553.894Z" style="fill:rgb(235,245,255);fill-rule:nonzero;"/>
        <path d="M853.175,553.894L853.175,511.394L860.258,511.394L860.258,553.894L853.175,553.894ZM856.675,503.561C855.286,503.561 854.092,503.061 853.092,502.061C852.092,501.061 851.592,499.867 851.592,498.478C851.592,497.033 852.092,495.825 853.092,494.853C854.092,493.881 855.286,493.394 856.675,493.394C858.119,493.394 859.328,493.881 860.3,494.853C861.272,495.825 861.758,497.033 861.758,498.478C861.758,499.867 861.272,501.061 860.3,502.061C859.328,503.061 858.119,503.561 856.675,503.561Z" style="fill:rgb(235,245,255);fill-rule:nonzero;"/>
        <path d="M870.592,553.894L870.592,494.228L877.675,494.228L877.675,553.894L870.592,553.894ZM873.258,545.228L873.258,536.144L897.675,511.394L906.675,511.394L906.675,511.728L873.258,545.228ZM898.675,553.894L883.342,531.061L888.342,526.144L907.175,553.561L907.175,553.894L898.675,553.894Z" style="fill:rgb(235,245,255);fill-rule:nonzero;"/>
        <path d="M912.592,553.894L912.592,511.394L919.675,511.394L919.675,553.894L912.592,553.894ZM916.092,503.561C914.703,503.561 913.508,503.061 912.508,502.061C911.508,501.061 911.008,499.867 911.008,498.478C911.008,497.033 911.508,495.825 912.508,494.853C913.508,493.881 914.703,493.394 916.092,493.394C917.536,493.394 918.744,493.881 919.717,494.853C920.689,495.825 921.175,497.033 921.175,498.478C921.175,499.867 920.689,501.061 919.717,502.061C918.744,503.061 917.536,503.561 916.092,503.561Z" style="fill:rgb(235,245,255);fill-rule:nonzero;"/>
        <path d="M959.092,542.061C959.092,540.672 959.425,539.478 960.092,538.478C960.758,537.478 961.772,536.7 963.133,536.144C964.494,535.589 966.258,535.311 968.425,535.311C970.758,535.311 972.953,535.603 975.008,536.186C977.064,536.769 979.064,537.728 981.008,539.061L981.008,535.144C980.619,534.644 979.869,533.992 978.758,533.186C977.647,532.381 976.161,531.658 974.3,531.019C972.439,530.381 970.119,530.061 967.342,530.061C962.619,530.061 958.939,531.186 956.3,533.436C953.661,535.686 952.342,538.672 952.342,542.394C952.342,545.006 952.953,547.228 954.175,549.061C955.397,550.894 957.022,552.297 959.05,553.269C961.078,554.242 963.258,554.728 965.592,554.728C967.703,554.728 969.828,554.339 971.967,553.561C974.105,552.783 975.911,551.589 977.383,549.978C978.855,548.367 979.592,546.339 979.592,543.894L978.258,538.894C978.258,540.894 977.772,542.658 976.8,544.186C975.828,545.714 974.522,546.894 972.883,547.728C971.244,548.561 969.397,548.978 967.342,548.978C965.73,548.978 964.3,548.714 963.05,548.186C961.8,547.658 960.828,546.867 960.133,545.811C959.439,544.756 959.092,543.506 959.092,542.061ZM958.092,524.394C958.703,523.95 959.536,523.422 960.592,522.811C961.647,522.2 962.939,521.672 964.467,521.228C965.994,520.783 967.703,520.561 969.592,520.561C970.758,520.561 971.869,520.672 972.925,520.894C973.98,521.117 974.911,521.478 975.717,521.978C976.522,522.478 977.147,523.158 977.592,524.019C978.036,524.881 978.258,525.978 978.258,527.311L978.258,553.894L984.925,553.894L984.925,526.394C984.925,523.894 984.3,521.783 983.05,520.061C981.8,518.339 980.05,517.019 977.8,516.103C975.55,515.186 972.925,514.728 969.925,514.728C966.369,514.728 963.328,515.256 960.8,516.311C958.272,517.367 956.286,518.422 954.842,519.478L958.092,524.394Z" style="fill:rgb(235,245,255);fill-rule:nonzero;"/>
        <path d="M1005.758,572.228L1005.758,515.561L999.092,515.561L999.092,572.228L1005.758,572.228ZM1037.842,534.728C1037.842,530.561 1036.98,526.992 1035.258,524.019C1033.536,521.047 1031.244,518.756 1028.383,517.144C1025.522,515.533 1022.342,514.728 1018.842,514.728C1015.675,514.728 1012.883,515.533 1010.467,517.144C1008.05,518.756 1006.161,521.047 1004.8,524.019C1003.439,526.992 1002.758,530.561 1002.758,534.728C1002.758,538.839 1003.439,542.394 1004.8,545.394C1006.161,548.394 1008.05,550.7 1010.467,552.311C1012.883,553.922 1015.675,554.728 1018.842,554.728C1022.342,554.728 1025.522,553.922 1028.383,552.311C1031.244,550.7 1033.536,548.394 1035.258,545.394C1036.98,542.394 1037.842,538.839 1037.842,534.728ZM1031.092,534.728C1031.092,537.672 1030.494,540.172 1029.3,542.228C1028.105,544.283 1026.522,545.839 1024.55,546.894C1022.578,547.95 1020.397,548.478 1018.008,548.478C1016.064,548.478 1014.147,547.95 1012.258,546.894C1010.369,545.839 1008.814,544.283 1007.592,542.228C1006.369,540.172 1005.758,537.672 1005.758,534.728C1005.758,531.783 1006.369,529.283 1007.592,527.228C1008.814,525.172 1010.369,523.617 1012.258,522.561C1014.147,521.506 1016.064,520.978 1018.008,520.978C1020.397,520.978 1022.578,521.506 1024.55,522.561C1026.522,523.617 1028.105,525.172 1029.3,527.228C1030.494,529.283 1031.092,531.783 1031.092,534.728Z" style="fill:rgb(235,245,255);fill-rule:nonzero;"/>
        <path d="M1056.592,572.228L1056.592,515.561L1049.925,515.561L1049.925,572.228L1056.592,572.228ZM1088.675,534.728C1088.675,530.561 1087.814,526.992 1086.092,524.019C1084.369,521.047 1082.078,518.756 1079.217,517.144C1076.355,515.533 1073.175,514.728 1069.675,514.728C1066.508,514.728 1063.717,515.533 1061.3,517.144C1058.883,518.756 1056.994,521.047 1055.633,524.019C1054.272,526.992 1053.592,530.561 1053.592,534.728C1053.592,538.839 1054.272,542.394 1055.633,545.394C1056.994,548.394 1058.883,550.7 1061.3,552.311C1063.717,553.922 1066.508,554.728 1069.675,554.728C1073.175,554.728 1076.355,553.922 1079.217,552.311C1082.078,550.7 1084.369,548.394 1086.092,545.394C1087.814,542.394 1088.675,538.839 1088.675,534.728ZM1081.925,534.728C1081.925,537.672 1081.328,540.172 1080.133,542.228C1078.939,544.283 1077.355,545.839 1075.383,546.894C1073.411,547.95 1071.23,548.478 1068.842,548.478C1066.897,548.478 1064.98,547.95 1063.092,546.894C1061.203,545.839 1059.647,544.283 1058.425,542.228C1057.203,540.172 1056.592,537.672 1056.592,534.728C1056.592,531.783 1057.203,529.283 1058.425,527.228C1059.647,525.172 1061.203,523.617 1063.092,522.561C1064.98,521.506 1066.897,520.978 1068.842,520.978C1071.23,520.978 1073.411,521.506 1075.383,522.561C1077.355,523.617 1078.939,525.172 1080.133,527.228C1081.328,529.283 1081.925,531.783 1081.925,534.728Z" style="fill:rgb(235,245,255);fill-rule:nonzero;"/>
    </g>
</svg>
